<?xml version="1.0" standalone="no"?>
<!DOCTYPE svg PUBLIC "-//W3C//DTD SVG 20010904//EN" "http://www.w3.org/TR/2001/REC-SVG-20010904/DTD/svg10.dtd">
<!-- Created using Karbon14, part of koffice: http://www.koffice.org/karbon -->
<svg xmlns="http://www.w3.org/2000/svg" xmlns:xlink="http://www.w3.org/1999/xlink" width="595.276pt" height="841.89pt">
  <defs>
  </defs>
  <g id="pynguin">
    <path id="path2844" fill="#000000" fill-opacity="1" fill-rule="nonzero" stroke="#000000" stroke-opacity="1" stroke-width="0.73067" stroke-linecap="butt" stroke-linejoin="miter" stroke-miterlimit="4" d="M225.714 112.857C225.714 175.186 175.186 225.714 112.857 225.714C50.5279 225.714 0 175.186 0 112.857C0 50.5279 50.5279 0 112.857 0C175.186 0 225.714 50.5279 225.714 112.857Z"  transform="matrix(0 0.938718 -0.95236 0 641.95 161.934)" />
    <path id="path2831" fill="#000000" fill-opacity="1" fill-rule="nonzero" stroke="#000000" stroke-opacity="1" stroke-width="0.73067" stroke-linecap="butt" stroke-linejoin="miter" stroke-miterlimit="4" d="M225.714 112.857C225.714 175.186 175.186 225.714 112.857 225.714C50.5279 225.714 0 175.186 0 112.857C0 50.5279 50.5279 0 112.857 0C175.186 0 225.714 50.5279 225.714 112.857Z"  transform="matrix(0 0.323684 -0.391678 0 574.145 316.562)" />
    <path id="path2829" fill="#000000" fill-opacity="1" fill-rule="nonzero" stroke="#000000" stroke-opacity="1" stroke-width="0.73067" stroke-linecap="butt" stroke-linejoin="miter" stroke-miterlimit="4" d="M225.714 112.857C225.714 175.186 175.186 225.714 112.857 225.714C50.5279 225.714 0 175.186 0 112.857C0 50.5279 50.5279 0 112.857 0C175.186 0 225.714 50.5279 225.714 112.857Z"  transform="matrix(0 0.311823 -0.391699 0 574.147 139.88)" />
    <path id="path2861" fill="#ffffff" fill-opacity="1" fill-rule="nonzero" stroke="#000000" stroke-opacity="1" stroke-width="0.73067" stroke-linecap="butt" stroke-linejoin="miter" stroke-miterlimit="4" d="M179.286 50.3887C179.286 82.1451 175.177 57.8887 97.8571 57.8887C20.5373 57.8887 0.22739 74.5781 0 42.5315C14.2857 20.0609 41.9705 0.990349 85 0.0315487C128.029 -0.927261 158.571 20.0609 179.286 50.3887Z"  transform="matrix(0 0.938718 -0.95236 0 642.66 187.413)" />
    <g id="g2853" transform="translate(435.607, 172.909)">
      <path id="path2816" fill="#000000" fill-opacity="1" fill-rule="nonzero" stroke="#ffffff" stroke-opacity="1" stroke-width="2.52254" stroke-linecap="butt" stroke-linejoin="miter" stroke-miterlimit="4" d="M225.714 112.857C225.714 175.186 175.186 225.714 112.857 225.714C50.5279 225.714 0 175.186 0 112.857C0 50.5279 50.5279 0 112.857 0C175.186 0 225.714 50.5279 225.714 112.857Z"  transform="matrix(0 0.838042 -0.850221 0 192.979 1.057)" />
      <path id="path2818" fill="#ffcc00" fill-opacity="1" fill-rule="nonzero" stroke="#000000" stroke-opacity="1" stroke-width="0.205721" stroke-linecap="butt" stroke-linejoin="miter" stroke-miterlimit="4" d="M51.3974 72.2941C33.2147 77.3449 19.698 77.8915 0 72.3356C0 72.3356 18.4853 0 26.4862 0C36.0873 0 51.3974 72.2941 51.3974 72.2941Z"  transform="matrix(0 0.838042 -0.850221 0 240.949 75.9766)" />
      <path id="path2821" fill="#ffffff" fill-opacity="1" fill-rule="nonzero" stroke="#000000" stroke-opacity="1" stroke-width="0.606821" stroke-linecap="butt" stroke-linejoin="miter" stroke-miterlimit="4" d="M80.9393 22.1694C80.9393 37.5701 68.4371 43.6243 44.5749 43.6243C20.7126 43.6243 0 43.2861 0 27.8854C0 12.4847 19.3442 0 43.2065 0C67.0687 0 80.9393 6.76871 80.9393 22.1694Z"  transform="matrix(0 0.838042 -0.850221 0 178.07 28.5408)" />
      <path id="path2825" fill="#000000" fill-opacity="1" fill-rule="nonzero" stroke="#000000" stroke-opacity="1" stroke-width="0.73067" stroke-linecap="butt" stroke-linejoin="miter" stroke-miterlimit="4" d="M48.5714 24.2857C48.5714 37.6983 37.6984 48.5714 24.2857 48.5714C10.8731 48.5714 0 37.6983 0 24.2857C0 10.8731 10.8731 0 24.2857 0C37.6984 0 48.5714 10.8731 48.5714 24.2857Z"  transform="matrix(0 0.713316 -0.443576 0 176.188 48.3167)" />
      <path id="path2834" fill="#ffffff" fill-opacity="1" fill-rule="nonzero" stroke="#000000" stroke-opacity="1" stroke-width="0.598819" stroke-linecap="butt" stroke-linejoin="miter" stroke-miterlimit="4" d="M0 22.1734C0 37.5769 12.1724 43.6322 35.4053 43.6322C58.6381 43.6322 78.8044 43.294 78.8044 27.8905C78.8044 12.487 59.9705 0 36.7376 0C13.5047 0 0 6.76994 0 22.1734Z"  transform="matrix(0 0.838042 -0.850221 0 176.859 96.778)" />
      <path id="path2827" fill="#000000" fill-opacity="1" fill-rule="nonzero" stroke="#000000" stroke-opacity="1" stroke-width="0.73067" stroke-linecap="butt" stroke-linejoin="miter" stroke-miterlimit="4" d="M48.5714 24.2857C48.5714 37.6983 37.6984 48.5714 24.2857 48.5714C10.8731 48.5714 0 37.6983 0 24.2857C0 10.8731 10.8731 0 24.2857 0C37.6984 0 48.5714 10.8731 48.5714 24.2857Z"  transform="matrix(0 0.713316 -0.443576 0 174.973 111.159)" />
    </g>
  </g>
  <g id="arrow">
    <path id="rect3672" fill="#004040" fill-opacity="1" fill-rule="nonzero" d="M72.5 62.8571L72.5 0L250 125L72.5 250L72.5 188.571C71.0714 130 10 154.286 0 188.571L0 125L0 62.8571C10 94.2857 71.0714 125.714 72.5 62.8571Z"  transform="translate(116.878, 150.52)" />
    <path id="path3697" fill="#46acb9" fill-opacity="1" fill-rule="nonzero" d="M76.3285 57.1102L76.3285 0L238.571 113.571L76.3285 227.143L76.3285 171.331C75.0227 118.114 13.6047 138.037 0 177.223L0 113.571L0 52.312C14.4437 87.1805 75.0227 114.22 76.3285 57.1102Z"  transform="translate(116.878, 161.948)" />
  </g>
  <g id="g3785">
    <rect id="hidden" transform="translate(119.198, 574.068)" fill="#46acb9" fill-opacity="0" fill-rule="nonzero" width="200pt" height="200pt"/>
    <rect id="rect3769" transform="translate(80.8122, 533.144)" fill="none" stroke="#626262" stroke-opacity="1" stroke-width="2.61728" stroke-linecap="butt" stroke-linejoin="miter" stroke-miterlimit="2" width="261.832pt" height="276.378pt"/>
    <text id="text3771" fill="#000000" fill-opacity="1" font-family="Bitstream Vera Sans" font-size="27pt"       x="78.0736pt" y="693.913pt">
hidden (invisible)    </text>
  </g>
</svg>
