<?xml version="1.0" standalone="no"?>
<!DOCTYPE svg PUBLIC "-//W3C//DTD SVG 20010904//EN" "http://www.w3.org/TR/2001/REC-SVG-20010904/DTD/svg10.dtd">
<!-- Created using Karbon14, part of koffice: http://www.koffice.org/karbon -->
<svg xmlns="http://www.w3.org/2000/svg" xmlns:xlink="http://www.w3.org/1999/xlink" width="595.276pt" height="841.89pt">
  <defs>
  </defs>
  <g id="pynguin">
    <path id="path2844" fill="#000000" fill-opacity="1" fill-rule="nonzero" stroke="#000000" stroke-opacity="1" stroke-width="0.73067" stroke-linecap="butt" stroke-linejoin="miter" stroke-miterlimit="4" d="M225.714 112.857C225.714 175.186 175.186 225.714 112.857 225.714C50.5279 225.714 0 175.186 0 112.857C0 50.5279 50.5279 0 112.857 0C175.186 0 225.714 50.5279 225.714 112.857Z"  transform="matrix(0 0.938718 -0.95236 0 619.726 56.8778)" />
    <path id="path2831" fill="#000000" fill-opacity="1" fill-rule="nonzero" stroke="#000000" stroke-opacity="1" stroke-width="0.73067" stroke-linecap="butt" stroke-linejoin="miter" stroke-miterlimit="4" d="M225.714 112.857C225.714 175.186 175.186 225.714 112.857 225.714C50.5279 225.714 0 175.186 0 112.857C0 50.5279 50.5279 0 112.857 0C175.186 0 225.714 50.5279 225.714 112.857Z"  transform="matrix(0 0.323684 -0.391678 0 551.921 211.506)" />
    <path id="path2829" fill="#000000" fill-opacity="1" fill-rule="nonzero" stroke="#000000" stroke-opacity="1" stroke-width="0.73067" stroke-linecap="butt" stroke-linejoin="miter" stroke-miterlimit="4" d="M225.714 112.857C225.714 175.186 175.186 225.714 112.857 225.714C50.5279 225.714 0 175.186 0 112.857C0 50.5279 50.5279 0 112.857 0C175.186 0 225.714 50.5279 225.714 112.857Z"  transform="matrix(0 0.311823 -0.391699 0 551.923 34.824)" />
    <path id="path2861" fill="#ffffff" fill-opacity="1" fill-rule="nonzero" stroke="#000000" stroke-opacity="1" stroke-width="0.73067" stroke-linecap="butt" stroke-linejoin="miter" stroke-miterlimit="4" d="M179.286 50.3887C179.286 82.1451 175.177 57.8887 97.8571 57.8887C20.5373 57.8887 0.22739 74.5781 0 42.5315C14.2857 20.0609 41.9705 0.990349 85 0.0315487C128.029 -0.927261 158.571 20.0609 179.286 50.3887Z"  transform="matrix(0 0.938718 -0.95236 0 620.436 82.3573)" />
    <g id="g2853" transform="translate(413.383, 67.8533)">
      <path id="path2816" fill="#000000" fill-opacity="1" fill-rule="nonzero" stroke="#ffffff" stroke-opacity="1" stroke-width="2.52254" stroke-linecap="butt" stroke-linejoin="miter" stroke-miterlimit="4" d="M225.714 112.857C225.714 175.186 175.186 225.714 112.857 225.714C50.5279 225.714 0 175.186 0 112.857C0 50.5279 50.5279 0 112.857 0C175.186 0 225.714 50.5279 225.714 112.857Z"  transform="matrix(0 0.838042 -0.850221 0 192.979 1.057)" />
      <path id="path2818" fill="#ffcc00" fill-opacity="1" fill-rule="nonzero" stroke="#000000" stroke-opacity="1" stroke-width="0.205721" stroke-linecap="butt" stroke-linejoin="miter" stroke-miterlimit="4" d="M51.3974 72.2941C33.2147 77.3449 19.698 77.8915 0 72.3356C0 72.3356 18.4853 0 26.4862 0C36.0873 0 51.3974 72.2941 51.3974 72.2941Z"  transform="matrix(0 0.838042 -0.850221 0 240.949 75.9766)" />
      <path id="path2821" fill="#ffffff" fill-opacity="1" fill-rule="nonzero" stroke="#000000" stroke-opacity="1" stroke-width="0.606821" stroke-linecap="butt" stroke-linejoin="miter" stroke-miterlimit="4" d="M80.9393 22.1694C80.9393 37.5701 68.4371 43.6243 44.5749 43.6243C20.7126 43.6243 0 43.2861 0 27.8854C0 12.4847 19.3442 0 43.2065 0C67.0687 0 80.9393 6.76871 80.9393 22.1694Z"  transform="matrix(0 0.838042 -0.850221 0 178.07 28.5408)" />
      <path id="path2825" fill="#000000" fill-opacity="1" fill-rule="nonzero" stroke="#000000" stroke-opacity="1" stroke-width="0.73067" stroke-linecap="butt" stroke-linejoin="miter" stroke-miterlimit="4" d="M48.5714 24.2857C48.5714 37.6983 37.6984 48.5714 24.2857 48.5714C10.8731 48.5714 0 37.6983 0 24.2857C0 10.8731 10.8731 0 24.2857 0C37.6984 0 48.5714 10.8731 48.5714 24.2857Z"  transform="matrix(0 0.713316 -0.443576 0 176.188 48.3167)" />
      <path id="path2834" fill="#ffffff" fill-opacity="1" fill-rule="nonzero" stroke="#000000" stroke-opacity="1" stroke-width="0.598819" stroke-linecap="butt" stroke-linejoin="miter" stroke-miterlimit="4" d="M0 22.1734C0 37.5769 12.1724 43.6322 35.4053 43.6322C58.6381 43.6322 78.8044 43.294 78.8044 27.8905C78.8044 12.487 59.9705 0 36.7376 0C13.5047 0 0 6.76994 0 22.1734Z"  transform="matrix(0 0.838042 -0.850221 0 176.859 96.778)" />
      <path id="path2827" fill="#000000" fill-opacity="1" fill-rule="nonzero" stroke="#000000" stroke-opacity="1" stroke-width="0.73067" stroke-linecap="butt" stroke-linejoin="miter" stroke-miterlimit="4" d="M48.5714 24.2857C48.5714 37.6983 37.6984 48.5714 24.2857 48.5714C10.8731 48.5714 0 37.6983 0 24.2857C0 10.8731 10.8731 0 24.2857 0C37.6984 0 48.5714 10.8731 48.5714 24.2857Z"  transform="matrix(0 0.713316 -0.443576 0 174.973 111.159)" />
    </g>
  </g>
  <g id="arrow">
    <path id="rect3672" fill="#004040" fill-opacity="1" fill-rule="nonzero" d="M72.5 62.8571L72.5 0L250 125L72.5 250L72.5 188.571C71.0714 130 10 154.286 0 188.571L0 125L0 62.8571C10 94.2857 71.0714 125.714 72.5 62.8571Z"  transform="translate(94.6542, 45.464)" />
    <path id="path3697" fill="#3c939e" fill-opacity="1" fill-rule="nonzero" d="M76.3285 57.1102L76.3285 0L238.571 113.571L76.3285 227.143L76.3285 171.331C75.0227 118.114 13.6047 138.037 0 177.223L0 113.571L0 52.312C14.4437 87.1805 75.0227 114.22 76.3285 57.1102Z"  transform="translate(94.6542, 56.8926)" />
  </g>
  <g id="g3785">
    <rect id="hidden" transform="translate(78.7919, 370.017)" fill="#46acb9" fill-opacity="0" fill-rule="nonzero" width="200pt" height="200pt"/>
    <rect id="rect3769" transform="translate(40.4061, 329.093)" fill="none" stroke="#626262" stroke-opacity="1" stroke-width="2.61728" stroke-linecap="butt" stroke-linejoin="miter" stroke-miterlimit="2" width="261.832pt" height="276.378pt"/>
    <text id="text3771" fill="#000000" fill-opacity="1" font-family="Bitstream Vera Sans" font-size="27pt"       x="45.7487pt" y="530.672pt">
hidden (invisible)    </text>
  </g>
  <g id="robot">
    <rect id="rect4287" transform="translate(443.571, 360.22)" fill="#a7d7de" fill-opacity="0" fill-rule="nonzero" width="200pt" height="200pt"/>
    <g id="g4274" transform="translate(515.213, 361.924)">
      <path id="path3816" fill="#5a6928" fill-opacity="1" fill-rule="nonzero" stroke="#dadada" stroke-opacity="1" stroke-width="1.21837" stroke-linecap="butt" stroke-linejoin="miter" stroke-miterlimit="2" d="M24.6149 62.1525L0 26.461L55.9988 0L135.382 33.23L102.767 49.2297L59.0756 36.3069L57.2295 60.9218Z"  transform="translate(20.4803, 0.609187)" />
      <path id="path3814" fill="#5a6928" fill-opacity="1" fill-rule="nonzero" stroke="#dadada" stroke-opacity="1" stroke-width="1.21837" stroke-linecap="butt" stroke-linejoin="miter" stroke-miterlimit="4" d="M24.6149 0L0 35.6915L55.9988 62.1525L135.382 28.9225L102.767 12.9228L59.0756 25.8456L57.2295 1.23074Z"  transform="translate(20.4803, 185.221)" />
      <path id="path3795" fill="#5a6928" fill-opacity="1" fill-rule="nonzero" stroke="#dadada" stroke-opacity="1" stroke-width="1.29101" stroke-linecap="butt" stroke-linejoin="miter" stroke-miterlimit="4" d="M101.529 129.963L41.1697 134.487L0 90.1164L9.02128 30.2641L61.4403 0L117.785 22.1135L135.626 79.9527Z"  transform="matrix(0.719384 -0.186137 0.110718 1.20942 0.535833 47.9505)" />
      <g id="g3847" transform="translate(71.8247, 73.822)">
        <path id="rect3809" fill="#5a6928" fill-opacity="1" fill-rule="nonzero" stroke="#dadada" stroke-opacity="1" stroke-width="1.32991" stroke-linecap="butt" stroke-linejoin="miter" stroke-miterlimit="4" d="M0 0L16.2763 12.2072L16.2763 27.5587L0 40.8757Z"  transform="matrix(0.883819 -0.241168 0.241168 0.883819 0.748066 4.67339)" />
        <rect id="rect3822" transform="matrix(0.241168 0.883819 -0.883819 0.241168 15.3064 13.7699)" fill="#ff9a1d" fill-opacity="1" fill-rule="nonzero" width="10.1015pt" height="4.44467pt" rx="2.22234pt" ry="2.22234pt"/>
      </g>
      <g id="g3855" transform="translate(72.2598, 121.261)">
        <path id="path3857" fill="#5a6928" fill-opacity="1" fill-rule="nonzero" stroke="#dadada" stroke-opacity="1" stroke-width="1.32991" stroke-linecap="butt" stroke-linejoin="miter" stroke-miterlimit="4" d="M0 0L16.2763 12.2072L16.2763 27.5587L0 40.8757Z"  transform="matrix(0.883819 0.241168 0.241168 -0.883819 0.748066 36.8748)" />
        <rect id="rect3859" transform="matrix(0.241168 -0.883819 -0.883819 -0.241168 15.3064 27.7783)" fill="#ff9a1d" fill-opacity="1" fill-rule="nonzero" width="10.1015pt" height="4.44467pt" rx="2.22234pt" ry="2.22234pt"/>
      </g>
      <path id="path3861" fill="#98b143" fill-opacity="1" fill-rule="nonzero" d="M101.529 129.963L41.1697 134.487L0 90.1164L9.02128 30.2641L61.4403 0L117.785 22.1135L135.626 79.9527Z"  transform="matrix(0.489624 -0.12672 0.0753562 0.823362 15.2178 70.1436)" />
      <path id="path3934" fill="#697a2e" fill-opacity="1" fill-rule="nonzero" stroke="#494949" stroke-opacity="1" stroke-width="2.21386" stroke-linecap="butt" stroke-linejoin="miter" stroke-miterlimit="4" d="M101.529 129.963L41.1697 134.487L0 90.1164L9.02128 30.2641L61.4403 0L117.785 22.1135L135.626 79.9527Z"  transform="matrix(0.419506 -0.108545 0.0645646 0.705267 21.1048 77.6202)" />
    </g>
  </g>
</svg>
